<svg width="32" height="32" viewBox="0 0 32 32" fill="none" xmlns="http://www.w3.org/2000/svg">
<path fill-rule="evenodd" clip-rule="evenodd" d="M7.5 4C7.22386 4 7 4.22386 7 4.5V27.5C7 27.7761 7.22386 28 7.5 28H24.5C24.7761 28 25 27.7761 25 27.5V15.5C25 13.567 23.433 12 21.5 12H19.5C18.1193 12 17 10.8807 17 9.5V7.5C17 5.567 15.433 4 13.5 4H7.5ZM7.5 2C6.11929 2 5 3.11929 5 4.5V27.5C5 28.8807 6.11929 30 7.5 30H24.5C25.8807 30 27 28.8807 27 27.5V15C27 7.8203 21.1797 2 14 2H7.5ZM18.3427 4.89047C18.762 5.66692 19 6.55567 19 7.5V9.5C19 9.77614 19.2239 10 19.5 10H21.5C22.4443 10 23.3331 10.238 24.1095 10.6573C22.9984 8.07399 20.926 6.00164 18.3427 4.89047Z" fill="#2E3333"/>
</svg>
