<svg width="24" height="28" viewBox="0 0 24 28" fill="none" xmlns="http://www.w3.org/2000/svg">
<path fill-rule="evenodd" clip-rule="evenodd" d="M12 4.25C6.61522 4.25 2.25 8.61522 2.25 14C2.25 19.3848 6.61522 23.75 12 23.75C17.3848 23.75 21.75 19.3848 21.75 14C21.75 8.61522 17.3848 4.25 12 4.25ZM16.2803 14.5303C16.421 14.3897 16.5 14.1989 16.5 14C16.5 13.8011 16.421 13.6103 16.2803 13.4697L13.2803 10.4697C12.9874 10.1768 12.5126 10.1768 12.2197 10.4697C11.9268 10.7626 11.9268 11.2374 12.2197 11.5303L13.9393 13.25L8.25 13.25C7.83579 13.25 7.5 13.5858 7.5 14C7.5 14.4142 7.83579 14.75 8.25 14.75L13.9393 14.75L12.2197 16.4697C11.9268 16.7626 11.9268 17.2374 12.2197 17.5303C12.5126 17.8232 12.9874 17.8232 13.2803 17.5303L16.2803 14.5303Z" fill="#237B6C"/>
</svg>
