<svg width="28" height="28" viewBox="0 0 28 28" fill="none" xmlns="http://www.w3.org/2000/svg">
<path fill-rule="evenodd" clip-rule="evenodd" d="M7.58541 4.81717C5.93664 5.64156 5.25 6.61854 5.25 7.4375C5.25 8.25646 5.93664 9.23344 7.58541 10.0578C9.18184 10.856 11.4485 11.375 14 11.375C16.5515 11.375 18.8182 10.856 20.4146 10.0578C22.0634 9.23344 22.75 8.25646 22.75 7.4375C22.75 6.61854 22.0634 5.64156 20.4146 4.81717C18.8182 4.01896 16.5515 3.5 14 3.5C11.4485 3.5 9.18184 4.01896 7.58541 4.81717ZM22.75 10.6376C22.2881 11.0123 21.7599 11.3417 21.1972 11.6231C19.3101 12.5666 16.7643 13.125 14 13.125C11.2357 13.125 8.68992 12.5666 6.80279 11.6231C6.24011 11.3417 5.71192 11.0123 5.25 10.6376V11.8125C5.25 12.6315 5.93664 13.6084 7.58541 14.4328C9.18184 15.231 11.4485 15.75 14 15.75C16.5515 15.75 18.8182 15.231 20.4146 14.4328C22.0634 13.6084 22.75 12.6315 22.75 11.8125V10.6376ZM22.75 15.0126C22.2881 15.3873 21.7599 15.7167 21.1972 15.9981C19.3101 16.9416 16.7643 17.5 14 17.5C11.2357 17.5 8.68992 16.9416 6.80279 15.9981C6.24011 15.7167 5.71192 15.3873 5.25 15.0126V16.1875C5.25 17.0065 5.93664 17.9834 7.58541 18.8078C9.18184 19.606 11.4485 20.125 14 20.125C16.5515 20.125 18.8182 19.606 20.4146 18.8078C22.0634 17.9834 22.75 17.0065 22.75 16.1875V15.0126ZM22.75 19.3876C22.2881 19.7623 21.7599 20.0917 21.1972 20.3731C19.3101 21.3166 16.7643 21.875 14 21.875C11.2357 21.875 8.68992 21.3166 6.80279 20.3731C6.24011 20.0917 5.71192 19.7623 5.25 19.3876V20.5625C5.25 21.3815 5.93664 22.3584 7.58541 23.1828C9.18184 23.981 11.4485 24.5 14 24.5C16.5515 24.5 18.8182 23.981 20.4146 23.1828C22.0634 22.3584 22.75 21.3815 22.75 20.5625V19.3876ZM3.5 7.4375C3.5 5.59859 4.96799 4.16932 6.80279 3.25192C8.68992 2.30836 11.2357 1.75 14 1.75C16.7643 1.75 19.3101 2.30836 21.1972 3.25192C23.032 4.16932 24.5 5.59859 24.5 7.4375V20.5625C24.5 22.4014 23.032 23.8307 21.1972 24.7481C19.3101 25.6916 16.7643 26.25 14 26.25C11.2357 26.25 8.68992 25.6916 6.80279 24.7481C4.96799 23.8307 3.5 22.4014 3.5 20.5625V7.4375Z" fill="#2E3333"/>
</svg>
