<svg width="28" height="28" viewBox="0 0 28 28" fill="none" xmlns="http://www.w3.org/2000/svg">
<path fill-rule="evenodd" clip-rule="evenodd" d="M1.75 7.875C1.75 5.942 3.317 4.375 5.25 4.375H22.75C24.683 4.375 26.25 5.942 26.25 7.875V20.125C26.25 22.058 24.683 23.625 22.75 23.625H5.25C3.317 23.625 1.75 22.058 1.75 20.125V7.875ZM3.5 7.875V8.15816C3.5 8.76587 3.81527 9.33007 4.33283 9.64856L13.0828 15.0332C13.6453 15.3793 14.3547 15.3793 14.9172 15.0332L23.6672 9.64856C24.1847 9.33007 24.5 8.76587 24.5 8.15816V7.875C24.5 6.9085 23.7165 6.125 22.75 6.125H5.25C4.2835 6.125 3.5 6.9085 3.5 7.875ZM24.5 11.1909L15.8343 16.5236C14.7094 17.2158 13.2906 17.2158 12.1657 16.5236L3.5 11.1909V20.125C3.5 21.0915 4.2835 21.875 5.25 21.875H22.75C23.7165 21.875 24.5 21.0915 24.5 20.125V11.1909Z" fill="#2E3333"/>
</svg>
