<svg width="32" height="32" viewBox="0 0 32 32" fill="none" xmlns="http://www.w3.org/2000/svg">
<path fill-rule="evenodd" clip-rule="evenodd" d="M2 4C2 3.44772 2.44772 3 3 3H29C29.5523 3 30 3.44772 30 4C30 4.55228 29.5523 5 29 5H28V19C28 21.2091 26.2091 23 24 23H22.3874L23.9487 27.6838C24.1233 28.2077 23.8402 28.774 23.3162 28.9487C22.7923 29.1233 22.226 28.8402 22.0513 28.3162L21.6126 27H10.3874L9.94868 28.3162C9.77404 28.8402 9.20772 29.1233 8.68377 28.9487C8.15983 28.774 7.87667 28.2077 8.05132 27.6838L9.61257 23H8C5.79086 23 4 21.2091 4 19V5H3C2.44772 5 2 4.55228 2 4ZM6 5V19C6 20.1046 6.89543 21 8 21H24C25.1046 21 26 20.1046 26 19V5H6ZM11.7208 23L11.0541 25H20.9459L20.2792 23H11.7208ZM22.8656 9.63979C23.1422 10.1179 22.9788 10.7296 22.5007 11.0061C20.5885 12.1123 18.9426 13.6288 17.6839 15.4352C17.5147 15.678 17.2466 15.8334 16.9518 15.8596C16.6569 15.8857 16.3657 15.7799 16.1564 15.5706L14 13.4142L10.7071 16.7071C10.3166 17.0976 9.68342 17.0976 9.29289 16.7071C8.90237 16.3166 8.90237 15.6834 9.29289 15.2929L13.2929 11.2929C13.6834 10.9024 14.3166 10.9024 14.7071 11.2929L16.7556 13.3414C18.0689 11.7115 19.677 10.3291 21.4993 9.27491C21.9773 8.99837 22.5891 9.16173 22.8656 9.63979Z" fill="#2E3333"/>
</svg>
